<?xml version="1.0" encoding="UTF-8"?>
<svg width="14px" height="14px" viewBox="0 0 14 14" version="1.1" xmlns="http://www.w3.org/2000/svg" xmlns:xlink="http://www.w3.org/1999/xlink">
    <title>编码解码（选中）</title>
    <defs>
        <rect id="path-1" x="0" y="0" width="14" height="14"></rect>
    </defs>
    <g id="页面-1" stroke="none" stroke-width="1" fill="none" fill-rule="evenodd">
        <g id="编码解码（选中）">
            <mask id="mask-2" fill="white">
                <use xlink:href="#path-1"></use>
            </mask>
            <g id="蒙版"></g>
            <g id="编组-4" mask="url(#mask-2)" fill-rule="nonzero">
                <g transform="translate(2.000000, 3.000000)" id="路径">
                    <path d="M1.86314735,7.52962199 C1.40274915,7.52962199 1.01193065,7.91081749 1.01193065,8.37361897 L1.01193065,8.6324055 C1.01193065,8.83542234 1.18123438,9 1.39008111,9 L8.57456182,9 C8.67485356,9 8.77103761,8.9612714 8.84195458,8.89233406 C8.91287155,8.82339672 8.95271228,8.72989762 8.95271228,8.6324055 L8.95271228,8.37343517 C8.96670385,7.91063369 8.58987691,7.52943819 8.11529808,7.52943819 L1.86314735,7.52943819 L1.86314735,7.52962199 Z" fill="#35D2FE"></path>
                    <path d="M0.000189075233,5.66224192 C0.000189075233,6.23679213 0.47476791,6.70988625 1.07224565,6.70988625 L8.92794343,6.70988625 C9.50783717,6.70988625 10,6.23679213 10,5.66224192 L10,0.367594502 C10,0.164577665 9.83069627,0 9.62184953,0 L0.378150466,0 C0.169303731,0 0,0.164577665 0,0.367594502 L0,5.66187432 L0.000189075233,5.66224192 Z" fill="#345AFF"></path>
                    <path d="M6.94208626,2.50166439 C6.80141428,2.36638961 6.80141428,2.16347744 6.94208626,2.02838646 C7.08256915,1.89311169 7.29357711,1.89311169 7.41666509,2.02838646 L8.64678856,3.26221741 C8.78727146,3.39730839 8.78727146,3.60022056 8.64678856,3.73531154 L7.41647602,4.96914248 C7.27599312,5.10441726 7.06498516,5.10441726 6.94189718,4.96914248 C6.80141428,4.83386771 6.80141428,4.63095554 6.94189718,4.49586456 L7.94380684,3.49876447 L6.94208626,2.50166439 L6.94208626,2.50166439 Z" fill="#FFFFFF"></path>
                    <path d="M4.30543213,4.96914248 L5.16666982,1.7916556 C5.21942181,1.60583658 5.3950727,1.5043805 5.58830759,1.55510854 C5.76414755,1.60583658 5.86965153,1.7916556 5.83448354,1.97765842 L4.97343493,5.1551453 C4.92068294,5.34096432 4.74503205,5.44242041 4.55179716,5.39169236 C4.3583732,5.32405498 4.25305829,5.13805216 4.30562121,4.96914248 L4.30543213,4.96914248 Z" fill="#FFFFFF"></path>
                    <path d="M2.86467886,2.01147712 C3.00535083,1.87620234 3.21635879,1.87620234 3.33925769,2.01147712 C3.47992966,2.1465681 3.47992966,2.34948026 3.33925769,2.48475504 L2.33753711,3.48185513 L3.33925769,4.47895521 C3.47992966,4.61422999 3.47992966,4.81714216 3.33925769,4.95223314 C3.19858572,5.08750791 2.98776683,5.08750791 2.86467886,4.95223314 L1.63455539,3.71840219 C1.49388342,3.58331121 1.49388342,3.38039904 1.63455539,3.24530806 L2.86467886,2.01147712 Z" fill="#FFFFFF"></path>
                </g>
            </g>
        </g>
    </g>
</svg>