<?xml version="1.0" encoding="UTF-8"?>
<svg width="14px" height="14px" viewBox="0 0 14 14" version="1.1" xmlns="http://www.w3.org/2000/svg" xmlns:xlink="http://www.w3.org/1999/xlink">
    <title>加密解密（未选中）</title>
    <defs>
        <rect id="path-1" x="0" y="0" width="14" height="14"></rect>
    </defs>
    <g id="页面-1" stroke="none" stroke-width="1" fill="none" fill-rule="evenodd">
        <g id="加密解密（未选中）">
            <mask id="mask-2" fill="white">
                <use xlink:href="#path-1"></use>
            </mask>
            <g id="蒙版"></g>
            <g id="解锁" mask="url(#mask-2)">
                <g transform="translate(2.000000, 1.500000)">
                    <path d="M1.58120956,2.70106055 C1.67529769,1.18429647 3.00012252,0 4.60254421,0 L5.41172674,0 C7.00999675,0 8.33123494,1.18122195 8.42505284,2.69395654 C8.45202641,3.12543772 8.10478469,3.49580114 7.64972238,3.52116594 C7.19463551,3.54655404 6.8039118,3.21737058 6.77723302,2.7858894 C6.73458629,2.10045738 6.1359106,1.56521109 5.41172674,1.56521109 L4.60251964,1.56521109 C3.87423325,1.56521109 3.27194634,2.1035319 3.22929961,2.79297012 L3.07605632,5.26332507 C3.04937754,5.69480625 2.6586784,6.024013 2.20359152,5.9986249 C1.74850465,5.97323681 1.40126293,5.60289668 1.42796627,5.1714155 L1.58120956,2.70106055 Z" id="路径" fill="#8792C2" fill-rule="nonzero"></path>
                    <path d="M0.1,5.10500052 C0.154166667,4.59997448 0.507490079,4.24916719 0.988616071,4.19322969 C1.66470734,4.11458386 2.8875,4.02851615 5,4.02851615 C7.17083333,4.02851615 8.38973214,4.11940156 9.04278274,4.19968802 C9.48167163,4.2536724 9.81111111,4.56609427 9.87306548,5.02559948 C9.93834325,5.50849011 10,6.29200573 10,7.52851615 C10,8.76518281 9.93834325,9.54859427 9.87306548,10.0313026 C9.81111111,10.4909641 9.48167163,10.8033599 9.04278274,10.8573182 C8.38973214,10.9375266 7.17083333,11.0285161 5,11.0285161 C2.82916667,11.0285161 1.61026786,10.9375266 0.957217262,10.8573182 C0.518328373,10.8033599 0.188888889,10.4909641 0.126934524,10.0313026 C0.061656746,9.54859427 0,8.76518281 0,7.52851615 C0,6.35755261 0.0474950397,5.59286511 0.1,5.10500052 Z" id="路径" fill="#C9CCD7" fill-rule="nonzero"></path>
                    <rect id="矩形" fill="#FFFFFF" fill-rule="evenodd" x="3" y="7" width="4" height="1" rx="0.5"></rect>
                </g>
            </g>
        </g>
    </g>
</svg>