<?xml version="1.0" encoding="UTF-8"?>
<svg width="14px" height="14px" viewBox="0 0 14 14" version="1.1" xmlns="http://www.w3.org/2000/svg" xmlns:xlink="http://www.w3.org/1999/xlink">
    <title>热门工具（未选中） 2</title>
    <defs>
        <rect id="path-1" x="0" y="0" width="14" height="14"></rect>
    </defs>
    <g id="页面-1" stroke="none" stroke-width="1" fill="none" fill-rule="evenodd">
        <g id="热门工具（未选中）">
            <mask id="mask-2" fill="white">
                <use xlink:href="#path-1"></use>
            </mask>
            <g id="蒙版"></g>
            <g id="编组-5" mask="url(#mask-2)">
                <g transform="translate(2.000000, 1.500000)">
                    <g id="热门-面型" stroke-width="1" fill="none">
                        <path d="M4.29840454,0.0039374204 L4.33522296,0.0163121391 C4.78113495,0.16593374 8.04336392,1.38090613 7.25615102,4.66976887 C7.25615102,4.66976887 7.67810181,4.35871344 8.10063702,3.7360401 C8.10063702,3.7360401 10,5.18894457 10,7.2639599 C10,8.71686438 8.73356321,9.96221107 6.20127404,11 L5.89328502,11 C6.73777103,9.82383924 2.95774648,9.76759051 4.10028636,11 L3.92905149,11 C1.78598562,10.3126406 0,8.95029659 0,6.87471876 C0,2.99693189 3.99450646,3.64435468 4.28613173,0 L4.29840454,0.0039374204 Z" id="路径" fill="#C9CCD7" fill-rule="nonzero"></path>
                    </g>
                    <path d="M5.07532212,5 C2.33588222,6.61905555 2.00871362,8.61905555 4.09381633,11 C5.1636938,11 5.81569332,11 6.04981487,11 C6.53159492,10.3676464 6.77248495,9.72582554 6.77248495,9.0745374 C6.77248495,8.09760519 5.81880627,7.71834187 5.28092116,6.8309266 C4.92233109,6.23931641 4.85379808,5.62900755 5.07532212,5 Z" id="路径-8" fill="#8792C2"></path>
                </g>
            </g>
        </g>
    </g>
</svg>