<?xml version="1.0" standalone="no"?>
<!DOCTYPE svg PUBLIC "-//W3C//DTD SVG 1.1//EN" "http://www.w3.org/Graphics/SVG/1.1/DTD/svg11.dtd">
<svg t="1703244248127" class="icon" viewBox="0 0 1024 1024" version="1.1"
  xmlns="http://www.w3.org/2000/svg" p-id="4378" width="14px" height="14px"
  xmlns:xlink="http://www.w3.org/1999/xlink">
  <path d="M893.456828 709.055005" fill="#ff8500" p-id="4379"></path>
  <path d="M491.889987 337.939709" fill="#ff8500" p-id="4380"></path>
  <path d="M568.154951 338.993714" fill="#ff8500" p-id="4381"></path>
  <path
    d="M972.917578 391.652028c-7.324826-23.010063-28.66997-40.47483-63.432705-51.907207-0.455371-0.155543-0.910743-0.289596-1.376347-0.403183l-188.768271-48.161906c-40.930201-58.694797-81.911568-117.368104-122.892935-176.052668-0.165776-0.227174-0.538259-0.765433-0.714268-0.99363-19.720134-25.927509-44.292785-40.215934-69.175499-40.215934-17.98256 0-44.354184 7.294127-68.110237 42.337247L353.318978 276.818653c-47.076178 13.419637-94.151333 26.89044-141.258211 40.361243l-68.843948 19.689435c-32.063253 9.787924-52.321646 25.637913-60.205197 47.106878-8.277524 22.554692-2.462075 48.855708 17.805528 80.411401 0.48607 0.765433 1.02433 1.500167 1.603521 2.192945 41.189098 48.999994 82.356706 98.052177 123.544781 147.165758-2.111081 70.758554-4.263094 141.599995-6.445806 212.43018-3.13541 33.915437 2.079358 57.814754 15.932878 73.065086 10.501168 11.55722 25.099654 17.412578 43.392276 17.412578 14.019295 0 30.645974-3.445472 53.076846-11.112082l181.773973-69.568449c68.586075 24.054859 137.254014 48.038086 206.749808 72.279187 13.563924 4.107551 26.123984 6.186909 37.33942 6.186909 25.576515 0 68.99949-11.059893 72.465428-85.170798 0.030699-0.7552 0.030699-1.5104-0.020466-2.2656-3.797489-63.153342-7.646144-126.173654-11.484565-189.223642l-0.052189-0.827855L952.576297 467.677539C973.237873 439.73207 980.076628 414.145321 972.917578 391.652028zM918.909523 441.945481 780.434705 617.005542c-3.238764 4.097318-4.852518 9.229199-4.5312 14.443967l0.538259 8.918114c3.817955 62.646805 7.646144 125.273145 11.422144 188.023304-2.338255 43.671639-20.361747 43.671639-30.077016 43.671639-7.055696 0-15.488763-1.469468-24.220634-4.087085-71.099315-24.831548-142.168953-49.65184-213.175147-74.566276-4.738931-1.645476-9.891278-1.572822-14.57802 0.206708l-188.292434 72.082712c-16.926508 5.773494-29.579689 8.577353-38.674834 8.577353-8.81476 0-11.153014-2.576685-12.033058-3.538593-2.441609-2.690272-7.822153-12.084223-5.03876-41.219797 0.040932-0.455371 0.072655-0.910743 0.082888-1.366114 2.275833-73.769121 4.510734-147.528008 6.704702-221.204008 0.155543-5.194302-1.603521-10.263761-4.945639-14.246469-42.61661-50.841945-85.23322-101.601003-127.848807-152.318104-11.721973-18.550495-16.21224-32.984229-12.974499-41.798988 3.817955-10.397814 19.937075-17.258059 32.435737-21.074991l68.481697-19.585057c49.641607-14.195304 99.220792-28.380374 148.821467-42.513256 4.89345-1.396813 9.125845-4.510734 11.908214-8.773827l109.267613-166.885891c7.253194-10.697643 18.84009-23.455201 32.849152-23.455201 11.329023 0 23.920806 8.349155 35.146475 23.103184 42.481534 60.826344 84.96409 121.641431 127.384225 182.478008 2.907213 4.169973 7.211239 7.160073 12.136412 8.411577l195.679681 49.931203c20.133549 6.714935 32.777521 15.33322 35.632545 24.283056C935.25684 413.068803 930.270269 426.550863 918.909523 441.945481z"
    fill="#ff8500" p-id="4382"></path>
</svg>