<?xml version="1.0" encoding="UTF-8"?>
<svg width="14px" height="14px" viewBox="0 0 14 14" version="1.1" xmlns="http://www.w3.org/2000/svg" xmlns:xlink="http://www.w3.org/1999/xlink">
    <title>图像处理（选中）</title>
    <defs>
        <rect id="path-1" x="0" y="0" width="14" height="14"></rect>
    </defs>
    <g id="页面-1" stroke="none" stroke-width="1" fill="none" fill-rule="evenodd">
        <g id="图像处理（选中）">
            <mask id="mask-2" fill="white">
                <use xlink:href="#path-1"></use>
            </mask>
            <g id="蒙版"></g>
            <g id="图片-(4)备份" mask="url(#mask-2)" fill-rule="nonzero">
                <g transform="translate(2.000000, 2.375000)" id="路径">
                    <path d="M8.36400818,10.0204499 L1.63599182,10.0204499 C0.736196319,10.0204499 0,9.28425358 0,8.38445808 L0,1.63599182 C0,0.736196319 0.736196319,0 1.63599182,0 L8.36400818,0 C9.26380368,0 10,0.736196319 10,1.63599182 L10,8.38445808 C10,9.28425358 9.26380368,10.0204499 8.36400818,10.0204499 Z" fill="#345AFF"></path>
                    <path d="M1.55419223,2.67893661 C1.55419223,3.1830537 1.82313548,3.64887711 2.25971369,3.90093567 C2.6962919,4.15299422 3.23417844,4.15299422 3.67075665,3.90093567 C4.10733487,3.64887711 4.37627812,3.1830537 4.37627812,2.67893661 C4.37627812,1.89963911 3.74453267,1.26789366 2.96523517,1.26789366 C2.18593767,1.26789366 1.55419223,1.89963911 1.55419223,2.67893661 L1.55419223,2.67893661 Z" fill="#FFFFFF"></path>
                    <path d="M8.65030675,5.09202454 C8.03680982,4.47852761 7.03476483,4.47852761 6.42126789,5.09202454 L1.57464213,9.93865031 L1.49284254,10.0204499 L8.34355828,10.0204499 C9.24335378,10.0204499 9.9795501,9.28425358 9.9795501,8.38445808 L9.9795501,6.44171779 L8.65030675,5.09202454 Z" fill="#0025C5"></path>
                    <path d="M6.80981595,10.0204499 L3.33333333,6.52351738 C2.7198364,5.91002045 1.71779141,5.91002045 1.10429448,6.52351738 L0.0204498978,7.62781186 L0.0204498978,8.38445808 C0.0204498978,9.28425358 0.756646217,10.0204499 1.65644172,10.0204499 L6.80981595,10.0204499 Z" fill="#35D2FE"></path>
                </g>
            </g>
        </g>
    </g>
</svg>