<?xml version="1.0" encoding="UTF-8"?>
<svg width="14px" height="14px" viewBox="0 0 14 14" version="1.1" xmlns="http://www.w3.org/2000/svg" xmlns:xlink="http://www.w3.org/1999/xlink">
    <title>json （选中）</title>
    <defs>
        <rect id="path-1" x="0" y="0" width="14" height="14"></rect>
    </defs>
    <g id="页面-1" stroke="none" stroke-width="1" fill="none" fill-rule="evenodd">
        <g id="json-（选中）">
            <mask id="mask-2" fill="white">
                <use xlink:href="#path-1"></use>
            </mask>
            <g id="蒙版"></g>
            <g id="json-(1)" mask="url(#mask-2)" fill-rule="nonzero">
                <g transform="translate(2.000000, 2.000291)">
                    <path d="M7.18146416,0.178671052 L1.94863574,0.178671052 C1.81909922,0.178671052 1.71412998,0.283640294 1.71412998,0.413176807 L1.71412998,9.59351878 C1.71412998,9.72305529 1.81909922,9.82802453 1.94863574,9.82802453 L9.82021225,9.82802453 L9.82021225,2.81853584 L7.18146416,0.178671052" id="路径" fill="#FFFFFF"></path>
                    <path d="M1.53545893,9.00669558 L1.53545893,1 C1.53545893,0.44771525 1.98317418,-1.20591542e-16 2.53545893,0 L7.18146416,0 L7.18146416,0 C7.22836531,0 7.27414977,0.0189837992 7.30765059,0.0524846214 L9.94751538,2.69234941 C9.9810162,2.72585023 10,2.77163469 10,2.81853584 L10,9.00669558 C10,9.55898033 9.55228475,10.0066956 9,10.0066956 L2.53545893,10.0066956 C1.98317418,10.0066956 1.53545893,9.55898033 1.53545893,9.00669558 Z" id="形状" fill="#345AFF"></path>
                    <polygon id="形状" fill="#FFFFFF" points="7.36013521 2.63986479 9.39028504 2.63986479 7.36013521 0.610831658 7.36013521 2.63986479"></polygon>
                    <path d="M0.453382373,3.91177934 L8.25684055,3.91177934 C8.50698002,3.91177934 8.71021835,4.13288476 8.71021835,4.40647481 L8.71021835,7.77219075 C8.71021835,8.04578079 8.50698002,8.26688622 8.25684055,8.26688622 L0.453382373,8.26688622 C0.203242901,8.26688622 0,8.04578079 0,7.77219075 L0,4.40647481 C-0.00111211426,4.13288476 0.202126207,3.91177934 0.453382373,3.91177934 Z" id="路径" fill="#35D2FE"></path>
                    <path d="M1.12004873,7.35231377 C1.2015674,7.35231377 1.2763859,7.34226353 1.34227086,7.32327973 C1.40815581,7.30429593 1.46399051,7.27302849 1.50977497,7.22947743 C1.55555942,7.18592636 1.59017694,7.12897496 1.61362751,7.05750654 C1.63707809,6.98603812 1.64936173,6.89893598 1.64936173,6.79620013 L1.64936173,5.04634051 C1.64936173,5.00055606 1.63261131,4.96035507 1.5979938,4.92350417 C1.56337628,4.88665326 1.50642488,4.86878616 1.4271396,4.86878616 C1.34785433,4.86878616 1.29090293,4.88776996 1.25628541,4.92685425 C1.2216679,4.96593854 1.20491748,5.00502283 1.20491748,5.04634051 L1.20491748,6.60077866 C1.20491748,6.668897 1.20380079,6.72696509 1.2026841,6.77274955 C1.2015674,6.8196507 1.19598393,6.85650161 1.18705038,6.88330226 C1.17811683,6.91010292 1.1635998,6.93020341 1.144616,6.94360374 C1.1256322,6.95700407 1.09771485,6.96258754 1.06086395,6.96258754 C1.01507949,6.96258754 0.975995199,6.94807052 0.941377683,6.92015317 C0.906760167,6.89223582 0.874376039,6.86543516 0.841991911,6.83975119 C0.811841171,6.81741731 0.782807125,6.80513368 0.754889773,6.80401698 C0.726972421,6.80290029 0.700171763,6.80736707 0.6744878,6.81630062 C0.64992053,6.82523417 0.627586649,6.83751781 0.609719543,6.85426822 C0.591852438,6.86990193 0.578452109,6.88441896 0.571751945,6.8955859 C0.549418064,6.9324368 0.540484511,6.96817101 0.546067981,7.00502192 C0.551651452,7.04187282 0.566168475,7.07537364 0.588502356,7.10775777 C0.610836238,7.1401419 0.638753589,7.16917595 0.670021023,7.1970933 C0.702405151,7.22389396 0.733672586,7.24734453 0.766056714,7.26521164 C0.818541335,7.29759576 0.872142651,7.31992965 0.92686066,7.33332997 C0.983812058,7.34561361 1.04746362,7.35231377 1.12004873,7.35231377 L1.12004873,7.35231377 Z M2.41318047,7.29871246 C2.50363269,7.32662981 2.59966838,7.33891345 2.70128754,7.33444667 C2.98157775,7.32551312 3.18928285,7.25181131 3.32663622,7.11445794 C3.4628729,6.97710457 3.53434132,6.79508343 3.5388081,6.56951123 C3.54104148,6.48575917 3.53099124,6.40982398 3.50977405,6.34393903 C3.48855686,6.27805408 3.45282265,6.21886929 3.40368811,6.16638467 C3.35455357,6.11390005 3.2931354,6.06476551 3.2172002,6.01898105 C3.1423817,5.97319659 3.05304617,5.92741214 2.95031032,5.88274437 C2.90899264,5.86487727 2.86320818,5.84477678 2.81184025,5.82467628 C2.76047233,5.80457579 2.71133779,5.77889183 2.66443664,5.74985778 C2.61753549,5.72082373 2.57845119,5.68620622 2.54606707,5.64712193 C2.51368294,5.60803763 2.49804922,5.56336987 2.49804922,5.51088525 C2.49804922,5.47850112 2.50474938,5.44611699 2.51814971,5.41373286 C2.53155004,5.38023204 2.55053384,5.351198 2.57398442,5.32439734 C2.59743499,5.29871337 2.62646904,5.27637949 2.66108655,5.25962908 C2.69570407,5.24287867 2.73367167,5.23394512 2.77722274,5.23394512 C2.81630703,5.23394512 2.85427463,5.23952859 2.89112553,5.25069553 C2.92909313,5.26186247 2.96371065,5.2752628 2.99721147,5.29201321 C3.03071229,5.30764693 3.06197973,5.32551403 3.09101377,5.34449783 C3.12116451,5.36348163 3.14684848,5.38134874 3.16918236,5.39698245 C3.18481607,5.41038278 3.20603326,5.41931633 3.23060053,5.42378311 C3.2551678,5.42824989 3.28085177,5.42824989 3.30765242,5.42154972 C3.33333639,5.41596625 3.35902035,5.40591601 3.38247093,5.39028229 C3.4059215,5.37576527 3.42602199,5.35566477 3.44277241,5.32998081 C3.47292315,5.27972958 3.47627323,5.22724495 3.45505604,5.17141025 C3.43383885,5.11557555 3.39252117,5.06420762 3.33221969,5.01618977 C3.27191821,4.96817193 3.19598302,4.92797094 3.1055308,4.89670351 C3.01396188,4.86431938 2.9156928,4.84756897 2.80849017,4.84533558 C2.71245448,4.84310219 2.61865218,4.85538583 2.52708327,4.88330318 C2.43439766,4.91010384 2.3517623,4.95142152 2.27917718,5.00613953 C2.20659207,5.06085754 2.14740728,5.13009257 2.10273952,5.21272793 C2.05807176,5.29536329 2.03573787,5.39251568 2.03573787,5.500835 C2.03573787,5.60357086 2.05360498,5.69178969 2.09045588,5.76772489 C2.12730679,5.84254339 2.17532463,5.90731164 2.2378595,5.96202965 C2.29927768,6.01674766 2.37186279,6.06364881 2.45449815,6.1038498 C2.53713351,6.14405079 2.62646904,6.18090169 2.72250473,6.21440251 C2.75712225,6.22556945 2.79508984,6.24120317 2.83640752,6.26242036 C2.8788419,6.28252085 2.9168095,6.30820482 2.95254371,6.33947225 C2.98827792,6.37073968 3.01842866,6.40647389 3.04299593,6.44667488 C3.0675632,6.48799256 3.08096353,6.53601041 3.08096353,6.58961172 C3.08096353,6.64656312 3.07091328,6.69681435 3.04969609,6.74148212 C3.0295956,6.78614988 3.00167825,6.82300078 2.96817742,6.85203483 C2.93355991,6.88218557 2.89447562,6.90451945 2.84980785,6.92015317 C2.80514009,6.93578688 2.76047233,6.94360374 2.71468787,6.94360374 C2.65996986,6.94360374 2.60971863,6.93690358 2.56281748,6.92350325 C2.51591633,6.91010292 2.47124856,6.89223582 2.42993088,6.87101863 C2.38749651,6.84980144 2.34841221,6.82523417 2.31044462,6.79955021 C2.27247702,6.77386624 2.23674281,6.74929897 2.20324199,6.7258484 C2.16415769,6.70128113 2.12284001,6.69123088 2.07817225,6.69681435 C2.03350449,6.70239782 1.99553689,6.73031518 1.96426945,6.78056641 C1.94640235,6.80513368 1.9363521,6.83640111 1.93523541,6.87325202 C1.93411871,6.91010292 1.94193557,6.94695383 1.95756929,6.98603812 C1.97320301,7.02512241 1.99888697,7.06309001 2.03462118,7.09994091 C2.07035539,7.13790851 2.11725654,7.17140933 2.17644133,7.20044338 C2.24455967,7.23952767 2.32272825,7.27079511 2.41318047,7.29871246 L2.41318047,7.29871246 Z M4.83305653,7.35231377 C5.01731105,7.35231377 5.1769983,7.31992965 5.31323498,7.25516139 C5.44835496,7.19039313 5.56114106,7.10105761 5.64935989,6.98827151 C5.73869542,6.87548541 5.80458037,6.74259881 5.84701474,6.58849503 C5.89056581,6.43439125 5.911783,6.26912052 5.911783,6.09156617 C5.911783,5.91401181 5.89056581,5.74874109 5.84701474,5.595754 C5.80346368,5.44276691 5.73757872,5.31099701 5.64935989,5.19821091 C5.56002437,5.08542481 5.44835496,4.99720597 5.31323498,4.93132102 C5.17811499,4.86655277 5.01731105,4.83416864 4.83305653,4.83416864 C4.64210184,4.83416864 4.47794781,4.86655277 4.34282783,4.93132102 C4.20770785,4.99608928 4.09603844,5.08542481 4.00781961,5.19821091 C3.91960077,5.31099701 3.85594921,5.4438836 3.81463153,5.59798739 C3.77331385,5.75209117 3.75321336,5.9162452 3.75321336,6.09156617 C3.75321336,6.2735873 3.77554724,6.4422081 3.8213317,6.59742858 C3.86711615,6.75264906 3.93523449,6.88553565 4.02680341,6.99720506 C4.11837232,7.10887447 4.23115842,7.1959766 4.36516171,7.25851147 C4.499165,7.32104634 4.65550217,7.35231377 4.83305653,7.35231377 L4.83305653,7.35231377 Z M4.83305653,6.96258754 C4.71245357,6.96258754 4.6119511,6.93802027 4.53043243,6.88776904 C4.45003046,6.83751781 4.38414551,6.77163286 4.33389428,6.69011419 C4.28364304,6.60859552 4.24902553,6.51479322 4.22780834,6.40982398 C4.20770785,6.30485473 4.1965409,6.1987688 4.1965409,6.09268286 C4.1965409,5.97431329 4.20770785,5.86264388 4.23115842,5.75767464 C4.2534923,5.6527054 4.29034321,5.56113648 4.34059444,5.4829679 C4.39084567,5.40479931 4.45561393,5.34226444 4.5371326,5.29536329 C4.61753457,5.24846214 4.71692034,5.22501157 4.83305653,5.22501157 C4.94919271,5.22501157 5.04746179,5.24734545 5.12898046,5.2931299 C5.21049912,5.33891436 5.27526738,5.40144923 5.32551861,5.48073451 C5.37576985,5.56001979 5.41150406,5.65382209 5.43495463,5.76102472 C5.45728851,5.86822735 5.46957215,5.98213015 5.46957215,6.10273311 C5.46957215,6.22333607 5.4595219,6.33612217 5.43830471,6.44109141 C5.41820422,6.54606065 5.38247001,6.63651287 5.33221878,6.71468146 C5.28196754,6.79173335 5.21719929,6.85315152 5.13568062,6.89781929 C5.05416195,6.94025366 4.95365949,6.96258754 4.83305653,6.96258754 L4.83305653,6.96258754 Z M7.97543365,7.31769626 C8.05471893,7.31769626 8.10608685,7.30206254 8.12953743,7.26967841 C8.15187131,7.23729428 8.16415494,7.20267677 8.16415494,7.16359248 L8.16415494,5.04634051 C8.16415494,5.00055606 8.14740453,4.96035507 8.11278702,4.92350417 C8.0781695,4.88665326 8.0212181,4.86878616 7.94193282,4.86878616 C7.86264755,4.86878616 7.80569615,4.88776996 7.77107863,4.92685425 C7.73646111,4.96593854 7.7197107,5.00502283 7.7197107,5.04634051 L7.7197107,6.4433248 L6.63986754,4.9916225 C6.61976704,4.96482185 6.59519977,4.93690449 6.56616573,4.91010384 C6.53824837,4.88330318 6.50028078,4.86878616 6.45561301,4.86878616 C6.37409435,4.86878616 6.32160972,4.88553657 6.29815915,4.9179207 C6.27582527,4.95142152 6.26354163,4.98827242 6.26354163,5.02847341 L6.26354163,7.13902521 C6.26354163,7.18034289 6.28029204,7.21942718 6.31490956,7.25851147 C6.34952708,7.29759576 6.40647847,7.31657956 6.48576375,7.31657956 C6.56504903,7.31657956 6.62200043,7.29871246 6.65661795,7.26186155 C6.69123546,7.22501065 6.70798587,7.18480966 6.70798587,7.13902521 L6.70798587,5.79117546 L7.78447896,7.19485991 C7.80457945,7.22166057 7.83026342,7.24957792 7.86153085,7.27637858 C7.89168159,7.30429593 7.92964919,7.31769626 7.97543365,7.31769626 L7.97543365,7.31769626 Z" id="形状" fill="#FFFFFF"></path>
                </g>
            </g>
        </g>
    </g>
</svg>