<?xml version="1.0" encoding="UTF-8"?>
<svg width="14px" height="14px" viewBox="0 0 14 14" version="1.1" xmlns="http://www.w3.org/2000/svg" xmlns:xlink="http://www.w3.org/1999/xlink">
    <title>我的收藏（选中）</title>
    <defs>
        <rect id="path-1" x="0" y="0" width="14" height="14"></rect>
    </defs>
    <g id="页面-1" stroke="none" stroke-width="1" fill="none" fill-rule="evenodd">
        <g id="我的收藏（选中）">
            <mask id="mask-2" fill="white">
                <use xlink:href="#path-1"></use>
            </mask>
            <g id="蒙版"></g>
            <g id="编组-3" mask="url(#mask-2)">
                <g transform="translate(1.000000, 2.000000)">
                    <g id="星星实心" transform="translate(5.000000, 5.000000) rotate(-360.000000) translate(-5.000000, -5.000000) translate(0.000000, 0.000000)"></g>
                    <g id="星星实心备份" transform="translate(5.750008, 5.000000) rotate(-360.000000) translate(-5.750008, -5.000000) translate(0.000000, 0.000000)">
                        <path d="M6.9998334,0.5 C7.52690873,0.5 8.00934815,0.7827874 8.27859658,1.23506175 L8.34661561,1.36252633 L8.928,2.584 L10.2190241,2.77974301 C10.7393976,2.85838182 11.1757375,3.20865339 11.3788643,3.69470797 L11.4283683,3.83053276 C11.5851956,4.33163973 11.4801121,4.87709689 11.1567968,5.27780458 L11.0532989,5.3934853 L10.108,6.35 L10.3323775,7.70652093 C10.4183273,8.22945527 10.2347805,8.75847237 9.8516857,9.1082366 L9.74231036,9.19904331 C9.52178692,9.36524807 9.20828177,9.32121408 9.04207701,9.10069064 C8.89433944,8.9046698 8.91271644,8.63518194 9.07350481,8.46098484 L9.14042968,8.40045729 C9.27573405,8.29848069 9.35472311,8.13205189 9.35324443,7.9570753 L9.34568764,7.86913351 L9.10988835,6.44221724 C9.07117511,6.21121562 9.12880563,5.97543174 9.26694651,5.79023614 L9.34265284,5.70211038 L10.3424582,4.69013275 C10.4841616,4.54713695 10.5363684,4.32844949 10.4740139,4.1292093 C10.4218362,3.96248721 10.2983519,3.83718307 10.1472483,3.7871204 L10.0695971,3.76851578 L8.68848519,3.55979163 C8.45353687,3.52402795 8.24807156,3.38909391 8.11933161,3.19361022 L8.06157413,3.09100136 L7.44350012,1.79192399 C7.36989581,1.63701519 7.2326958,1.53318957 7.07826818,1.5066865 L6.9998334,1.5 C6.72369102,1.5 6.4998334,1.27614237 6.4998334,1 C6.4998334,0.723857625 6.72369102,0.5 6.9998334,0.5 Z" id="路径" fill="#35D2FE" fill-rule="nonzero"></path>
                        <path d="M4.80651323,9.00691441 L3.26245172,9.84977426 C2.84158067,10.0806775 2.33057976,10.0430989 1.94538608,9.7529185 C1.5601924,9.46273806 1.36801948,8.97059011 1.45007515,8.48444493 L1.74505506,6.69941283 C1.76831866,6.55919003 1.72343573,6.41609032 1.62506323,6.31684427 L0.376814905,5.05255449 C0.0367389754,4.70809495 -0.0856098642,4.1936619 0.061047793,3.72486689 C0.20770545,3.25607187 0.598032964,2.91390412 1.06843448,2.84177454 L2.79498356,2.58183518 C2.93062445,2.56118801 3.04778335,2.47270612 3.10829555,2.34521264 L3.88074295,0.721671119 C4.09068034,0.279833539 4.52461629,0 4.9998334,0 C5.47505051,0 5.90898645,0.279833539 6.11892385,0.721671119 L6.89137125,2.34521264 C6.95188345,2.47270612 7.06904234,2.56118801 7.20468324,2.58183518 L8.93039905,2.84263812 C9.4012008,2.91378564 9.79219964,3.25577519 9.93898884,3.72480739 C10.085778,4.1938396 9.96289855,4.70856579 9.62201861,5.05255449 L8.37293701,6.31684427 C8.27486714,6.41625945 8.23030316,6.55933587 8.25377846,6.69941283 L8.54875837,8.48444493 C8.62852943,8.96978691 8.4359289,9.46004035 8.05172845,9.74960569 C7.667528,10.039171 7.15815028,10.0779866 6.73721508,9.84977426 L5.19315357,9.00691441 C5.07211096,8.94103824 4.92755584,8.94103824 4.80651323,9.00691441 Z" id="路径" fill="#345AFF" fill-rule="nonzero"></path>
                    </g>
                </g>
            </g>
        </g>
    </g>
</svg>