<?xml version="1.0" encoding="UTF-8"?>
<svg width="14px" height="14px" viewBox="0 0 14 14" version="1.1" xmlns="http://www.w3.org/2000/svg" xmlns:xlink="http://www.w3.org/1999/xlink">
    <title>杂项（未选中）</title>
    <defs>
        <rect id="path-1" x="0" y="0" width="14" height="14"></rect>
    </defs>
    <g id="页面-1" stroke="none" stroke-width="1" fill="none" fill-rule="evenodd">
        <g id="杂项（未选中）">
            <mask id="mask-2" fill="white">
                <use xlink:href="#path-1"></use>
            </mask>
            <g id="蒙版"></g>
            <g id="编组-16" mask="url(#mask-2)" fill-rule="nonzero">
                <g transform="translate(2.000000, 2.000000)" id="路径">
                    <path d="M4.34782609,5.2173913 L0.434782613,5.2173913 C0.195652175,5.2173913 0,5.41304348 0,5.65217391 L0,9.56521739 C0,9.80434782 0.195652175,10 0.434782613,10 L4.34782609,10 C4.58695652,10 4.7826087,9.80434782 4.7826087,9.56521739 L4.7826087,5.65217391 C4.7826087,5.41304348 4.58695652,5.2173913 4.34782609,5.2173913 Z" fill="#C9CCD7"></path>
                    <path d="M9.56521739,5.2173913 L5.65217391,5.2173913 C5.41304348,5.2173913 5.2173913,5.41304348 5.2173913,5.65217391 L5.2173913,9.56521739 C5.2173913,9.80434782 5.41304348,10 5.65217391,10 L9.56521739,10 C9.80434782,10 10,9.80434782 10,9.56521739 L10,5.65217391 C10,5.41304348 9.80434782,5.2173913 9.56521739,5.2173913 Z" fill="#C9CCD7"></path>
                    <path d="M4.34782609,0 L0.434782613,0 C0.195652175,0 0,0.195652175 0,0.434782613 L0,4.34782609 C0,4.58695652 0.195652175,4.7826087 0.434782613,4.7826087 L4.34782609,4.7826087 C4.58695652,4.7826087 4.7826087,4.58695652 4.7826087,4.34782609 L4.7826087,0.434782613 C4.7826087,0.195652175 4.58695652,0 4.34782609,0 Z" fill="#C9CCD7"></path>
                    <path d="M7.60869564,4.7826087 C8.92934781,4.7826087 10,3.71195652 10,2.39130436 C10,1.07065219 8.92934783,0 7.60869564,0 C6.28804346,0 5.2173913,1.07065217 5.2173913,2.39130436 C5.2173913,3.71195654 6.28804348,4.7826087 7.60869564,4.7826087 L7.60869564,4.7826087 Z" fill="#8792C2"></path>
                </g>
            </g>
        </g>
    </g>
</svg>