<?xml version="1.0" encoding="UTF-8"?>
<svg width="14px" height="14px" viewBox="0 0 14 14" version="1.1" xmlns="http://www.w3.org/2000/svg" xmlns:xlink="http://www.w3.org/1999/xlink">
    <title>文字处理（选中）</title>
    <defs>
        <rect id="path-1" x="0" y="0" width="14" height="14"></rect>
    </defs>
    <g id="页面-1" stroke="none" stroke-width="1" fill="none" fill-rule="evenodd">
        <g id="文字处理（选中）">
            <mask id="mask-2" fill="white">
                <use xlink:href="#path-1"></use>
            </mask>
            <g id="蒙版"></g>
            <g id="编组" mask="url(#mask-2)">
                <g transform="translate(1.500000, 1.500000)">
                    <rect id="矩形" fill="#345AFF" x="0" y="0" width="10" height="10" rx="2"></rect>
                    <g id="A" stroke-width="1" fill="none" transform="translate(2.287945, 2.288000)">
                        <path d="M2.184,0 L0,5.712 L1,5.712 L1.52,4.28 L3.912,4.28 L4.432,5.712 L5.432,5.712 L3.248,0 L2.184,0 Z M1.8,3.512 L2.704,1.008 L2.736,1.008 L3.632,3.512 L1.8,3.512 Z" fill="#FFFFFF" fill-rule="nonzero"></path>
                    </g>
                    <rect id="矩形备份-2" fill="#35D2FE" x="5" y="5" width="6" height="6" rx="2"></rect>
                    <path d="M6.99154459,6.49101061 L8.99154459,6.49101061 C9.26768696,6.49101061 9.49154459,6.71486824 9.49154459,6.99101061 C9.49154459,7.26715299 9.26768696,7.49101061 8.99154459,7.49101061 L6.99154459,7.49101061 C6.71540221,7.49101061 6.49154459,7.26715299 6.49154459,6.99101061 C6.49154459,6.71486824 6.71540221,6.49101061 6.99154459,6.49101061 Z" id="矩形" fill="#FFFFFF"></path>
                    <path d="M6.99154459,8.49101061 L8.99154459,8.49101061 C9.26768696,8.49101061 9.49154459,8.71486824 9.49154459,8.99101061 C9.49154459,9.26715299 9.26768696,9.49101061 8.99154459,9.49101061 L6.99154459,9.49101061 C6.71540221,9.49101061 6.49154459,9.26715299 6.49154459,8.99101061 C6.49154459,8.71486824 6.71540221,8.49101061 6.99154459,8.49101061 Z" id="矩形备份-3" fill="#FFFFFF"></path>
                </g>
            </g>
        </g>
    </g>
</svg>